<svg xmlns="http://www.w3.org/2000/svg" xmlns:xlink="http://www.w3.org/1999/xlink" viewBox="0 0 1582.93 465.48"><defs><style>.a{fill:none;}.b,.d{fill:#59328a;}.c{fill:#999998;}.d,.h{stroke:#59328a;stroke-miterlimit:10;}.d{stroke-width:1.49px;}.e{clip-path:url(#a);}.f{fill:#cc1517;}.g{fill:#019939;}.h{fill:#fff;stroke-width:1px;}</style><clipPath id="a" transform="translate(0 10.17)"><path class="a" d="M496.64,146.2A289.47,289.47,0,0,1,212.79,390.08a210.3,210.3,0,0,1-41.49-2.52A127.17,127.17,0,0,1,65.56,267.69a123.47,123.47,0,0,1,246.91-1.75c.52,20.47-8.35,38.42-26.57,38.94-19.47,0-28.6-13.89-28.6-32.61v-52a31.86,31.86,0,0,0-31.61-31.89H182.08a75.91,75.91,0,1,0,56.07,126.5l1.52-2.27,1.53,2.52A53.71,53.71,0,0,0,287,336.91a60.52,60.52,0,0,0,56.06-63.27,164.56,164.56,0,0,0-4.51-40.22,154.06,154.06,0,0,0-304.6,33.37A156,156,0,0,0,186,420.86a241.6,241.6,0,0,0,24.29.75A328.75,328.75,0,0,0,386.6,369c.75-.52,1.49.52,1,1.28A258.82,258.82,0,0,1,186,452.73,182,182,0,0,1,.81,266,188.32,188.32,0,0,1,76.44,115.23a184.44,184.44,0,0,1,108.8-35.92h58.52A164.62,164.62,0,0,0,365.24,25.67a2.35,2.35,0,0,1,3.73.38,2.36,2.36,0,0,1,.32,1.4,165.12,165.12,0,0,1-25.54,73.86,2.27,2.27,0,0,0,2.52,3.3,177,177,0,0,0,123-101.46,3.22,3.22,0,0,1,1.13-1.1,3.09,3.09,0,0,1,3.06,0,3.16,3.16,0,0,1,1.14,1.1,224.38,224.38,0,0,1,22,143ZM185.83,219.59a45.53,45.53,0,0,0-45.53,45.52,45,45,0,0,0,.87,8.89,45.52,45.52,0,0,0,89.3,0,45,45,0,0,0,.87-8.89V222.61a3.27,3.27,0,0,0-3.11-3.11Z"/></clipPath></defs><path class="b" d="M648.79,437.47a72.6,72.6,0,0,1-28.4-27.23q-10.27-17.37-10.27-39.2t10.38-39.21A73.41,73.41,0,0,1,649,304.6q18.12-9.86,40.59-9.85a84.86,84.86,0,0,1,33.27,6.35,68,68,0,0,1,25.43,18.44l-17.8,16.74q-16.11-17.37-39.63-17.37a55.54,55.54,0,0,0-27.34,6.67,48.1,48.1,0,0,0-18.86,18.54,56.81,56.81,0,0,0,0,53.83,48.1,48.1,0,0,0,18.86,18.54,55.55,55.55,0,0,0,27.34,6.68q23.52,0,39.63-17.59l17.8,16.95A67.71,67.71,0,0,1,722.75,441a85.41,85.41,0,0,1-33.38,6.36Q666.92,447.33,648.79,437.47Z" transform="translate(0 10.17)"/><path class="b" d="M775.2,439.27a54.09,54.09,0,0,1-21.51-20.66,61.81,61.81,0,0,1,0-59.86,54.39,54.39,0,0,1,21.51-20.56,68.65,68.65,0,0,1,62.09,0,54.39,54.39,0,0,1,21.51,20.56,61.74,61.74,0,0,1,0,59.86,54.09,54.09,0,0,1-21.51,20.66q-13.77,7.43-31.15,7.42A64.15,64.15,0,0,1,775.2,439.27Zm55.1-25q9.54-9.75,9.54-25.64T830.3,363q-9.54-9.74-24.16-9.74t-24,9.74q-9.44,9.75-9.43,25.65t9.43,25.64q9.42,9.75,24,9.75T830.3,414.27Z" transform="translate(0 10.17)"/><path class="b" d="M977.79,343.28q12.93,12.5,12.93,37.08v64.85H964.23V383.75q0-14.83-7-22.35t-19.92-7.53q-14.62,0-23.1,8.8T905.74,388v57.22H879.25V332h25.22v14.63A41.36,41.36,0,0,1,921,334.8a59.53,59.53,0,0,1,22.46-4Q964.87,330.77,977.79,343.28Z" transform="translate(0 10.17)"/><path class="b" d="M1040.94,326.11v6.78h31.16v21.19h-30.31v91.13H1015.3V354.08H996.65V332.89h18.65v-7.2q0-18.22,10.6-28.72t29.88-10.49q15.26,0,23.94,6.15l-7.41,19.92a25.34,25.34,0,0,0-14.63-4.66Q1040.94,307.89,1040.94,326.11Z" transform="translate(0 10.17)"/><path class="c" d="M1225.79,435.37v10.25H1118.66v-8l65.93-65.48q12.92-12.92,17.48-22.16a42.58,42.58,0,0,0,4.57-19q0-14.91-10.14-23.38t-29.28-8.47q-14.7,0-25.73,4.46a49.9,49.9,0,0,0-19,13.59l-8-7.13A58.78,58.78,0,0,1,1137,294.16q13.7-5.55,31.07-5.56,22.94,0,36.52,11.13t13.59,30.07a51.52,51.52,0,0,1-5.34,22.94q-5.36,10.92-20.05,25.39l-57.46,57.24Z" transform="translate(0 10.17)"/><path class="c" d="M1262.21,437q-13.92-9.69-21.61-27.5t-7.68-41.88q0-24,7.68-41.87t21.61-27.5a56.81,56.81,0,0,1,63.47,0q13.92,9.68,21.61,27.5t7.68,41.87q0,24.06-7.68,41.88T1325.68,437a56.81,56.81,0,0,1-63.47,0Zm57.68-8.91q11.25-8.11,17.49-23.6t6.23-36.87q0-21.37-6.23-36.86t-17.49-23.61a45.46,45.46,0,0,0-51.89,0q-11.25,8.15-17.49,23.61t-6.23,36.86q0,21.39,6.23,36.87t17.49,23.6a45.46,45.46,0,0,0,51.89,0Z" transform="translate(0 10.17)"/><path class="c" d="M1469.9,435.37v10.25H1362.77v-8l65.92-65.48q12.91-12.92,17.49-22.16a42.57,42.57,0,0,0,4.56-19q0-14.91-10.13-23.38t-29.29-8.47q-14.7,0-25.72,4.46a50,50,0,0,0-19,13.59l-8-7.13a58.67,58.67,0,0,1,22.6-15.82q13.69-5.55,31.07-5.56,22.93,0,36.53,11.13t13.59,30.07a51.53,51.53,0,0,1-5.35,22.94q-5.34,10.92-20,25.39l-57.46,57.24Z" transform="translate(0 10.17)"/><path class="c" d="M1581.93,435.37v10.25H1474.8v-8l65.92-65.48q12.91-12.92,17.49-22.16a42.57,42.57,0,0,0,4.56-19q0-14.91-10.13-23.38t-29.29-8.47q-14.7,0-25.72,4.46a50,50,0,0,0-19.05,13.59l-8-7.13a58.78,58.78,0,0,1,22.61-15.82q13.69-5.55,31.07-5.56,22.93,0,36.53,11.13t13.58,30.07a51.52,51.52,0,0,1-5.34,22.94q-5.34,10.92-20,25.39l-57.46,57.24Z" transform="translate(0 10.17)"/><path class="b" d="M805.37,127.11q9.75,12.63,9.75,30.41,0,26.4-21.8,40.89T730.19,212.9h-113V12.05H724.46q40.15,0,60.68,14.35t20.52,38.16a46.54,46.54,0,0,1-7,25.25q-7,11.19-20.81,18.07Q795.61,114.5,805.37,127.11ZM683.71,59.39V89.23h31.56q22.1,0,22.1-14.92t-22.1-14.92Zm63.13,90.39q0-15.78-22.38-15.79H683.71v31.57h40.75Q746.84,165.56,746.84,149.78Z" transform="translate(0 10.17)"/><path class="b" d="M836.93,0h64.84V212.9H836.93Z" transform="translate(0 10.17)"/><path class="b" d="M1063.89,71.59q21.79,18.51,21.8,56.95V212.9h-60.25V192.24q-11.19,23.53-44.48,23.53-18.65,0-31.7-6.46t-19.8-17.5A46.64,46.64,0,0,1,922.72,167q0-23.24,17.79-35.29t53.94-12h26.11q-3.16-18.36-29.55-18.36a74.28,74.28,0,0,0-21.52,3.29,60.66,60.66,0,0,0-18.65,9L930.18,70.87q13.49-8.31,32.56-13.05a157.24,157.24,0,0,1,38-4.74Q1042.09,53.08,1063.89,71.59ZM1012.81,173a21.68,21.68,0,0,0,8-11.19V150.92h-16.07q-19.8,0-19.8,13.2a11.43,11.43,0,0,0,4.16,9q4.15,3.59,11.34,3.59A21.38,21.38,0,0,0,1012.81,173Z" transform="translate(0 10.17)"/><path class="b" d="M1257.84,165.56V212.9H1108.07V175.6l64.84-72.31h-62.55V56h144.33v37.3l-64.85,72.31Z" transform="translate(0 10.17)"/><path class="b" d="M1311.93,205.3a80.76,80.76,0,0,1-32.57-29q-11.76-18.51-11.76-42t11.76-42a79.66,79.66,0,0,1,32.57-28.84q20.8-10.33,46.91-10.33,26.4,0,47.2,10.33t32.42,28.84q11.63,18.5,11.62,42t-11.62,42q-11.61,18.5-32.42,29t-47.2,10.47Q1332.73,215.77,1311.93,205.3Zm65.28-48.21q7.15-8.18,7.17-22.81t-7.17-22.67a25,25,0,0,0-36.73,0q-7.17,8-7.17,22.67t7.17,22.81a24.71,24.71,0,0,0,36.73,0Z" transform="translate(0 10.17)"/><path class="b" d="M1582.93,53.08v57.39a97.8,97.8,0,0,0-14.35-1.15q-33.28,0-33.28,33.86V212.9h-64.85V56h61.69V72.88Q1549.36,53.08,1582.93,53.08Z" transform="translate(0 10.17)"/><path class="d" d="M496.64,146.2A289.47,289.47,0,0,1,212.79,390.08a210.3,210.3,0,0,1-41.49-2.52A127.17,127.17,0,0,1,65.56,267.69a123.47,123.47,0,0,1,246.91-1.75c.52,20.47-8.35,38.42-26.57,38.94-19.47,0-28.6-13.89-28.6-32.61v-52a31.86,31.86,0,0,0-31.61-31.89H182.08a75.91,75.91,0,1,0,56.07,126.5l1.52-2.27,1.53,2.52A53.71,53.71,0,0,0,287,336.91a60.52,60.52,0,0,0,56.06-63.27,164.56,164.56,0,0,0-4.51-40.22,154.06,154.06,0,0,0-304.6,33.37A156,156,0,0,0,186,420.86a241.6,241.6,0,0,0,24.29.75A328.75,328.75,0,0,0,386.6,369c.75-.52,1.49.52,1,1.28A258.82,258.82,0,0,1,186,452.73,182,182,0,0,1,.81,266,188.32,188.32,0,0,1,76.44,115.23a184.44,184.44,0,0,1,108.8-35.92h58.52A164.62,164.62,0,0,0,365.24,25.67a2.35,2.35,0,0,1,3.73.38,2.36,2.36,0,0,1,.32,1.4,165.12,165.12,0,0,1-25.54,73.86,2.27,2.27,0,0,0,2.52,3.3,177,177,0,0,0,123-101.46,3.22,3.22,0,0,1,1.13-1.1,3.09,3.09,0,0,1,3.06,0,3.16,3.16,0,0,1,1.14,1.1,224.38,224.38,0,0,1,22,143ZM185.83,219.59a45.53,45.53,0,0,0-45.53,45.52,45,45,0,0,0,.87,8.89,45.52,45.52,0,0,0,89.3,0,45,45,0,0,0,.87-8.89V222.61a3.27,3.27,0,0,0-3.11-3.11Z" transform="translate(0 10.17)"/><g class="e"><path class="f" d="M379.55,18.42s138,83.87,68,279.81l42.51-40.17s69.38-160.35-16-268.23Z" transform="translate(0 10.17)"/><path class="g" d="M266.58,53.75S388.69,90.09,392.38,213.6c3.43,115.13-84.69,160.87-130.82,176.12-8.22,2.72-7.81,3.62-7.81,3.62L397,356.94l29-28.47L436.6,270,433,123.64,392.89,66.71V26.55L372.05,7.75l-86.41,24.4Z" transform="translate(0 10.17)"/><path class="h" d="M339.9,37.86S491,131.77,408,317.67l42.5-40.16S509.54,159.85,424.15,52L362.39,14.1Z" transform="translate(0 10.17)"/></g><rect class="c" x="544.87" y="10.17" width="16.16" height="455.31" rx="8.08"/></svg>