<svg xmlns="http://www.w3.org/2000/svg" xmlns:xlink="http://www.w3.org/1999/xlink" width="565.532" height="227.496" viewBox="0 0 565.532 227.496">
  <defs>
    <clipPath id="clip-path">
      <path id="Tracciato_5" data-name="Tracciato 5" d="M249.469,72.985A145.409,145.409,0,0,1,106.888,195.491a105.587,105.587,0,0,1-20.84-1.265A63.878,63.878,0,0,1,32.93,134.011a62.023,62.023,0,0,1,124.027-.877c.261,10.282-4.193,19.3-13.346,19.561-9.779,0-14.364-6.979-14.364-16.384V110.179a16.008,16.008,0,0,0-15.881-16.022h-21.9A38.132,38.132,0,1,0,119.625,157.7l.766-1.142.767,1.268a26.974,26.974,0,0,0,23,10.954A30.4,30.4,0,0,0,172.322,137a82.71,82.71,0,0,0-2.269-20.2,77.385,77.385,0,0,0-153,16.76A78.36,78.36,0,0,0,93.42,210.953a121.07,121.07,0,0,0,12.2.374A165.144,165.144,0,0,0,194.2,184.9c.376-.261.752.261.5.642A130,130,0,0,1,93.422,226.959,91.394,91.394,0,0,1,.406,133.182,94.6,94.6,0,0,1,38.4,57.43,92.625,92.625,0,0,1,93.047,39.388h29.4a82.711,82.711,0,0,0,61.021-26.944,1.146,1.146,0,0,1,.621-.355,1.172,1.172,0,0,1,1.411,1.247,82.941,82.941,0,0,1-12.828,37.1,1.142,1.142,0,0,0,1.265,1.659,88.9,88.9,0,0,0,61.8-50.967,1.635,1.635,0,0,1,.571-.55,1.563,1.563,0,0,1,1.536,0,1.6,1.6,0,0,1,.571.55,112.681,112.681,0,0,1,11.051,71.858ZM93.344,109.852a22.873,22.873,0,1,0,22.864,22.868V111.37a1.649,1.649,0,0,0-1.564-1.565Z" fill="none"/>
    </clipPath>
  </defs>
  <g id="Raggruppa_7" data-name="Raggruppa 7" transform="translate(0.001 0.018)">
    <g id="Raggruppa_1" data-name="Raggruppa 1">
      <path id="Tracciato_7" data-name="Tracciato 7" d="M2.406-29.548H16.969a20.1,20.1,0,0,1,8.717,1.794,13.65,13.65,0,0,1,5.867,5.129,14.478,14.478,0,0,1,2.089,7.851,14.478,14.478,0,0,1-2.089,7.851,13.65,13.65,0,0,1-5.867,5.129A20.1,20.1,0,0,1,16.969,0H2.406ZM16.547-7.767A7.112,7.112,0,0,0,21.676-9.6,6.815,6.815,0,0,0,23.6-14.774a6.815,6.815,0,0,0-1.921-5.171,7.112,7.112,0,0,0-5.129-1.836H12.368V-7.767Zm45.293.253V0H37.273V-29.548H61.291v7.514H47.066v3.461H59.56V-11.4H47.066v3.883ZM96.833-29.548,84.338,0H74.545L62.051-29.548H72.772l7.049,17.264L87.04-29.548ZM122.371-7.514V0H97.8V-29.548h24.018v7.514H107.6v3.461h12.495V-11.4H107.6v3.883Zm3.841-22.034h9.962V-7.725h13.339V0h-23.3ZM167.326.675a18.231,18.231,0,0,1-8.569-1.984A14.9,14.9,0,0,1,152.8-6.817a14.959,14.959,0,0,1-2.153-7.957,14.959,14.959,0,0,1,2.153-7.957,14.9,14.9,0,0,1,5.952-5.509,18.231,18.231,0,0,1,8.569-1.984,18.231,18.231,0,0,1,8.569,1.984,14.9,14.9,0,0,1,5.952,5.509A14.959,14.959,0,0,1,184-14.774a14.959,14.959,0,0,1-2.153,7.957,14.9,14.9,0,0,1-5.952,5.509A18.231,18.231,0,0,1,167.326.675Zm0-8.062a6.351,6.351,0,0,0,3.356-.908,6.5,6.5,0,0,0,2.385-2.575,8.2,8.2,0,0,0,.886-3.9,8.2,8.2,0,0,0-.886-3.9,6.5,6.5,0,0,0-2.385-2.575,6.351,6.351,0,0,0-3.356-.908,6.351,6.351,0,0,0-3.356.908,6.5,6.5,0,0,0-2.385,2.575,8.2,8.2,0,0,0-.886,3.9,8.2,8.2,0,0,0,.886,3.9,6.5,6.5,0,0,0,2.385,2.575A6.351,6.351,0,0,0,167.326-7.387Zm34.529-22.161a17.441,17.441,0,0,1,7.134,1.351,10.512,10.512,0,0,1,4.685,3.883,10.6,10.6,0,0,1,1.646,5.91,10.6,10.6,0,0,1-1.646,5.91,10.512,10.512,0,0,1-4.685,3.883,17.441,17.441,0,0,1-7.134,1.351h-4.263V0h-9.962V-29.548Zm-.633,14.605a4.432,4.432,0,0,0,3.039-.908,3.251,3.251,0,0,0,1.013-2.554,3.251,3.251,0,0,0-1.013-2.554,4.432,4.432,0,0,0-3.039-.908h-3.63v6.923Zm41.916,7.429V0H218.57V-29.548h24.018v7.514H228.363v3.461h12.495V-11.4H228.363v3.883Zm16.5.084h-2.7V0h-9.962V-29.548H261.2a17.441,17.441,0,0,1,7.134,1.351,10.512,10.512,0,0,1,4.685,3.883,10.6,10.6,0,0,1,1.646,5.91,10.445,10.445,0,0,1-1.435,5.53A10.134,10.134,0,0,1,269.1-9.118L275.3,0H264.665ZM264.623-18.4a3.251,3.251,0,0,0-1.013-2.554,4.432,4.432,0,0,0-3.039-.908h-3.63v6.923h3.63a4.432,4.432,0,0,0,3.039-.908A3.251,3.251,0,0,0,264.623-18.4Z" transform="translate(290.229 138.943)" fill="#3c2578"/>
      <path id="Tracciato_8" data-name="Tracciato 8" d="M8.864-29.548h2.153L5.108,0H2.955Zm17.687,1.942H15.914l.422-1.942H39.763l-.38,1.942H28.746L23.216,0H21.063ZM57.787-8.316H40.607L35.162,0H32.756l19.5-29.548H54.41L62.093,0H59.9Zm-.464-1.815L52.975-27.269,41.789-10.131Zm16.04-19.417h2.153L69.986-1.942H87L86.575,0H67.454Zm24.694,0h2.153L94.3,0H92.147ZM124.692-8.316h-17.18L102.067,0H99.661l19.5-29.548h2.153L129,0H126.8Zm-.464-1.815L119.88-27.269,108.694-10.131Zm40.1-19.417L158.419,0H156.6L141.7-26,136.511,0h-2.153l5.91-29.548h1.773l14.943,26,5.192-26Zm10.3,0h2.153L170.871,0h-2.153Z" transform="translate(290.183 180.43)" fill="#3c2578"/>
      <path id="Tracciato_6" data-name="Tracciato 6" d="M37.989-22.535A12.92,12.92,0,0,1,43.9-18.41a10.356,10.356,0,0,1,2.093,6.526,9.94,9.94,0,0,1-4.679,8.774Q36.634,0,27.768,0H3.51V-43.1H26.537q8.62,0,13.022,3.079a9.533,9.533,0,0,1,4.4,8.189,9.973,9.973,0,0,1-1.508,5.418A10.811,10.811,0,0,1,37.989-22.535ZM17.794-32.94v6.4h6.773q4.741,0,4.741-3.2t-4.741-3.2Zm8.743,22.781q4.8,0,4.8-3.386t-4.8-3.386H17.794v6.773ZM51.1-43.1H65.634v31.832H85.09V0H51.1ZM119.077-7.512H102.7L99.805,0H85.029l18.841-43.1h14.284L136.994,0H121.971Zm-4-10.467-4.187-10.836L106.7-17.979Zm62.309,6.711V0h-39.59V-8.928l19.7-22.9H138.41V-43.1H176.4v8.928l-19.7,22.9ZM203.921.985a26.592,26.592,0,0,1-12.5-2.894,21.736,21.736,0,0,1-8.681-8.035A21.819,21.819,0,0,1,179.6-21.55a21.819,21.819,0,0,1,3.14-11.606,21.736,21.736,0,0,1,8.681-8.035,26.592,26.592,0,0,1,12.5-2.894,26.592,26.592,0,0,1,12.5,2.894,21.736,21.736,0,0,1,8.681,8.035,21.819,21.819,0,0,1,3.14,11.606A21.819,21.819,0,0,1,225.1-9.944a21.736,21.736,0,0,1-8.681,8.035A26.592,26.592,0,0,1,203.921.985Zm0-11.76a9.263,9.263,0,0,0,4.895-1.324,9.478,9.478,0,0,0,3.479-3.756,11.96,11.96,0,0,0,1.293-5.7,11.96,11.96,0,0,0-1.293-5.7A9.478,9.478,0,0,0,208.816-31a9.263,9.263,0,0,0-4.895-1.324A9.263,9.263,0,0,0,199.026-31a9.478,9.478,0,0,0-3.479,3.756,11.96,11.96,0,0,0-1.293,5.7,11.96,11.96,0,0,0,1.293,5.7,9.478,9.478,0,0,0,3.479,3.756A9.263,9.263,0,0,0,203.921-10.775Zm48.086-.062h-3.941V0H233.536V-43.1h20.749a25.44,25.44,0,0,1,10.405,1.97,15.333,15.333,0,0,1,6.834,5.664,15.461,15.461,0,0,1,2.4,8.62,15.235,15.235,0,0,1-2.093,8.066A14.782,14.782,0,0,1,265.8-13.3L274.85,0H259.334Zm7.265-16.008a4.742,4.742,0,0,0-1.478-3.725,6.465,6.465,0,0,0-4.433-1.324h-5.3v10.1h5.3a6.465,6.465,0,0,0,4.433-1.324A4.742,4.742,0,0,0,259.272-26.845Z" transform="translate(289.634 100.656)" fill="#3c2578"/>
    </g>
    <g id="Raggruppa_6" data-name="Raggruppa 6">
      <path id="Tracciato_1" data-name="Tracciato 1" d="M249.469,72.985A145.409,145.409,0,0,1,106.888,195.491a105.587,105.587,0,0,1-20.84-1.265A63.878,63.878,0,0,1,32.93,134.011a62.023,62.023,0,0,1,124.027-.877c.261,10.282-4.193,19.3-13.346,19.561-9.779,0-14.364-6.979-14.364-16.384V110.179a16.008,16.008,0,0,0-15.881-16.022h-21.9A38.132,38.132,0,1,0,119.625,157.7l.766-1.142.767,1.268a26.974,26.974,0,0,0,23,10.954A30.4,30.4,0,0,0,172.322,137a82.71,82.71,0,0,0-2.269-20.2,77.385,77.385,0,0,0-153,16.76A78.36,78.36,0,0,0,93.42,210.953a121.07,121.07,0,0,0,12.2.374A165.144,165.144,0,0,0,194.2,184.9c.376-.261.752.261.5.642A130,130,0,0,1,93.422,226.959,91.394,91.394,0,0,1,.406,133.182,94.6,94.6,0,0,1,38.4,57.43,92.625,92.625,0,0,1,93.047,39.388h29.4a82.711,82.711,0,0,0,61.021-26.944,1.146,1.146,0,0,1,.621-.355,1.172,1.172,0,0,1,1.411,1.247,82.941,82.941,0,0,1-12.828,37.1,1.142,1.142,0,0,0,1.265,1.659,88.9,88.9,0,0,0,61.8-50.967,1.635,1.635,0,0,1,.571-.55,1.563,1.563,0,0,1,1.536,0,1.6,1.6,0,0,1,.571.55,112.681,112.681,0,0,1,11.051,71.858ZM93.344,109.852a22.873,22.873,0,1,0,22.864,22.868V111.37a1.649,1.649,0,0,0-1.564-1.565Z" fill="#3c2578" stroke="#3c2578" stroke-miterlimit="10" stroke-width="0.75"/>
      <g id="Raggruppa_5" data-name="Raggruppa 5">
        <g id="Raggruppa_4" data-name="Raggruppa 4" clip-path="url(#clip-path)">
          <g id="Raggruppa_3" data-name="Raggruppa 3">
            <path id="Tracciato_2" data-name="Tracciato 2" d="M190.652,8.8s69.319,42.127,34.181,140.552l21.351-20.176S281.035,48.63,238.141-5.561Z" fill="#be0010"/>
            <g id="Raggruppa_2" data-name="Raggruppa 2">
              <path id="Tracciato_3" data-name="Tracciato 3" d="M133.908,26.545s61.34,18.255,63.191,80.3c1.725,57.831-42.542,80.808-65.713,88.468-4.129,1.365-3.925,1.819-3.925,1.819L199.4,178.843l14.553-14.3,5.362-29.362-1.787-73.532-20.171-28.6V12.886L186.886,3.439l-43.4,12.255Z" fill="#2a8928"/>
              <path id="Tracciato_4" data-name="Tracciato 4" d="M170.737,18.566s75.894,47.171,34.181,140.553l21.351-20.176s29.681-59.1-13.213-113.291L182.035,6.63Z" fill="#fff" stroke="#3c2578" stroke-miterlimit="10" stroke-width="0.5"/>
            </g>
          </g>
        </g>
      </g>
    </g>
  </g>
</svg>
