<?xml version="1.0" encoding="utf-8"?>
<!-- Generator: Adobe Illustrator 26.5.1, SVG Export Plug-In . SVG Version: 6.00 Build 0)  -->
<svg version="1.1" id="Livello_1" xmlns="http://www.w3.org/2000/svg" xmlns:xlink="http://www.w3.org/1999/xlink" x="0px" y="0px"
	 viewBox="0 0 1582.9 465.5" style="enable-background:new 0 0 1582.9 465.5;" xml:space="preserve">
<style type="text/css">
	.st0{fill:#59328A;}
	.st1{fill:#59328A;stroke:#59328A;stroke-width:1.49;stroke-miterlimit:10;}
	.st2{clip-path:url(#SVGID_00000139980636318752292150000011132709974048112286_);}
	.st3{fill:#CC1517;}
	.st4{fill:#019939;}
	.st5{fill:#FFFFFF;stroke:#59328A;stroke-miterlimit:10;}
	.st6{fill:#999998;}
	.st7{fill:#FFFFFF;}
</style>
<path class="st0" d="M648.8,447.6c-11.8-6.3-21.6-15.7-28.4-27.2c-6.8-11.6-10.3-24.6-10.3-39.2s3.5-27.6,10.4-39.2
	c6.8-11.5,16.7-20.9,28.5-27.2c12.1-6.6,25.6-9.9,40.6-9.9c11.4-0.1,22.7,2,33.3,6.4c9.8,4.1,18.5,10.4,25.4,18.4l-17.8,16.7
	c-10.7-11.6-24-17.4-39.6-17.4c-9.5-0.2-19,2.1-27.3,6.7c-7.9,4.3-14.4,10.7-18.9,18.5c-9,16.8-9,37,0,53.8
	c4.4,7.8,11,14.2,18.9,18.5c8.4,4.5,17.8,6.8,27.3,6.7c15.7,0,28.9-5.9,39.6-17.6l17.8,17c-6.9,8.1-15.7,14.4-25.5,18.5
	c-10.6,4.3-21.9,6.5-33.4,6.4C674.4,457.5,660.9,454.2,648.8,447.6z"/>
<path class="st0" d="M775.2,449.4c-9-4.7-16.4-11.9-21.5-20.7c-10.3-18.6-10.3-41.2,0-59.9c5.1-8.7,12.6-15.8,21.5-20.6
	c19.5-9.9,42.6-9.9,62.1,0c8.9,4.7,16.4,11.8,21.5,20.6c10.3,18.6,10.3,41.2,0,59.9c-5.1,8.8-12.5,15.9-21.5,20.7
	c-9.2,5-19.6,7.4-31.2,7.4C795.4,457,784.7,454.5,775.2,449.4z M830.3,424.4c6.4-6.5,9.5-15,9.5-25.6s-3.2-19.1-9.5-25.6
	s-14.4-9.7-24.2-9.7c-9.7,0-17.7,3.2-24,9.7s-9.4,15.1-9.4,25.6c0,10.6,3.2,19.1,9.4,25.6c6.3,6.5,14.3,9.7,24,9.8
	C815.9,434.2,823.9,431,830.3,424.4z"/>
<path class="st0" d="M977.8,353.5c8.6,8.3,12.9,20.7,12.9,37.1v64.9h-26.5V394c0-9.9-2.3-17.3-7-22.4c-4.7-5-11.3-7.5-19.9-7.5
	c-9.7,0-17.4,2.9-23.1,8.8c-5.7,5.9-8.5,14.3-8.5,25.3v57.2h-26.5V342.2h25.2v14.6c4.4-5.3,10.1-9.3,16.5-11.8
	c7.2-2.8,14.8-4.1,22.5-4C957.7,341,969.2,345.1,977.8,353.5z"/>
<path class="st0" d="M1040.9,336.3v6.8h31.2v21.2h-30.3v91.1h-26.5v-91.1h-18.6v-21.2h18.7v-7.2c0-12.1,3.5-21.7,10.6-28.7
	c7.1-7,17-10.5,29.9-10.5c10.2,0,18.2,2,23.9,6.1l-7.4,19.9c-4.3-3-9.4-4.7-14.6-4.7C1046.5,318.1,1040.9,324.1,1040.9,336.3z"/>
<path class="st0" d="M805.4,137.3c6.5,8.4,9.7,18.6,9.8,30.4c0,17.6-7.3,31.2-21.8,40.9s-35.6,14.5-63.1,14.5h-113V22.2h107.3
	c26.8,0,47,4.8,60.7,14.3s20.5,22.3,20.5,38.2c0.1,8.9-2.3,17.7-7,25.2S787.2,113.4,778,118C789.7,122.5,798.9,128.9,805.4,137.3z
	 M683.7,69.6v29.8h31.6c14.7,0,22.1-5,22.1-14.9s-7.4-14.9-22.1-14.9L683.7,69.6z M746.8,159.9c0-10.5-7.5-15.8-22.4-15.8h-40.8
	v31.6h40.8C739.4,175.7,746.8,170.5,746.8,159.9z"/>
<path class="st0" d="M836.9,10.2h64.8v212.9h-64.8V10.2z"/>
<path class="st0" d="M1063.9,81.8c14.5,12.3,21.8,31.3,21.8,56.9v84.4h-60.2v-20.7c-7.5,15.7-22.3,23.5-44.5,23.5
	c-12.4,0-23-2.2-31.7-6.5s-15.3-10.1-19.8-17.5c-4.5-7.5-6.9-16.1-6.7-24.8c0-15.5,5.9-27.3,17.8-35.3c11.9-8,29.8-12,53.9-12h26.1
	c-2.1-12.2-12-18.4-29.5-18.4c-7.3,0-14.5,1.1-21.5,3.3c-6.7,1.9-13,5-18.7,9L930.2,81c9-5.5,19.8-9.9,32.6-13
	c12.4-3.1,25.2-4.7,38-4.7C1028.3,63.2,1049.4,69.4,1063.9,81.8z M1012.8,183.2c3.8-2.8,6.6-6.7,8-11.2v-10.9h-16.1
	c-13.2,0-19.8,4.4-19.8,13.2c-0.1,3.5,1.5,6.8,4.2,9c2.8,2.4,6.5,3.6,11.3,3.6C1004.8,186.9,1009.2,185.7,1012.8,183.2z"/>
<path class="st0" d="M1257.8,175.7V223H1108v-37.3l64.8-72.3h-62.6V66.2h144.3v37.3l-64.8,72.3L1257.8,175.7z"/>
<path class="st0" d="M1311.9,215.5c-13.3-6.5-24.6-16.5-32.6-29c-7.8-12.3-11.8-26.3-11.8-42s3.9-29.7,11.8-42
	c8-12.4,19.2-22.4,32.6-28.8c13.9-6.9,29.5-10.3,46.9-10.3c17.6,0,33.3,3.4,47.2,10.3s24.7,16.5,32.4,28.8
	c7.8,12.3,11.6,26.3,11.6,42s-3.9,29.7-11.6,42s-18.5,22-32.4,29s-29.6,10.5-47.2,10.5C1341.4,225.9,1325.8,222.5,1311.9,215.5z
	 M1377.2,167.3c4.8-5.5,7.2-13.1,7.2-22.8c0-9.8-2.4-17.3-7.2-22.7c-9.4-10.1-25.2-10.8-35.3-1.4c-0.5,0.4-1,0.9-1.4,1.4
	c-4.8,5.3-7.2,12.9-7.2,22.7s2.4,17.4,7.2,22.8c9.1,10.1,24.8,11,34.9,1.8C1376,168.5,1376.6,167.9,1377.2,167.3z"/>
<path class="st0" d="M1582.9,63.2v57.4c-4.7-0.7-9.5-1.1-14.3-1.2c-22.2,0-33.3,11.3-33.3,33.9V223h-64.8V66.2h61.7V83
	C1543.6,69.9,1560.5,63.2,1582.9,63.2z"/>
<path class="st1" d="M496.6,156.4c-22.3,139.7-142.3,242.9-283.9,243.9c-13.9,0.5-27.8-0.3-41.5-2.5c-59.1-10-103.1-60-105.7-119.9
	c0.5-68.2,56.1-123.1,124.3-122.6c66.9,0.5,121.2,54,122.6,120.9c0.5,20.5-8.4,38.4-26.6,38.9c-19.5,0-28.6-13.9-28.6-32.6v-52
	c0-17.5-14.1-31.8-31.6-31.9H182c-41.9-0.3-76.1,33.5-76.4,75.4s33.5,76.1,75.4,76.4c21.8,0.2,42.6-9.1,57.1-25.3l1.5-2.3l1.5,2.5
	c10.7,14.5,27.9,22.6,45.8,21.8c32.8-2.4,57.6-30.5,56.1-63.3c0.2-13.5-1.4-27-4.5-40.2c-18.1-83.1-100.1-135.9-183.3-117.8
	C84.2,141.2,33.7,204.3,33.9,277c1,83.9,68.2,152,152.1,154.1c8.1,0.7,16.2,0.9,24.3,0.8c62.6-0.4,123.7-18.6,176.3-52.6
	c0.8-0.5,1.5,0.5,1,1.3c-51.8,55.8-125.5,86-201.6,82.5C85.5,464.7,2.6,384.7,0.8,284.2c0-2.7,0-5.3,0-8
	c0-59.4,28.1-115.2,75.6-150.8c31.5-23.2,69.6-35.8,108.8-35.9h58.5c46.2,0,90.3-19.5,121.5-53.6c0.9-1,2.4-1,3.3-0.1
	c0.2,0.1,0.3,0.3,0.4,0.5c0.2,0.4,0.4,0.9,0.3,1.4c-2.5,26.3-11.2,51.6-25.5,73.9c-0.6,1.1-0.2,2.5,0.9,3.1c0.5,0.3,1.1,0.3,1.6,0.2
	c54.8-12.4,100.4-50,123-101.5c0.3-0.5,0.7-0.8,1.1-1.1c0.9-0.5,2.1-0.5,3.1,0c0.5,0.3,0.9,0.6,1.1,1.1
	C497.5,57.2,505.3,107.5,496.6,156.4L496.6,156.4z M185.8,229.8c-25.1,0-45.5,20.4-45.5,45.5c0,3,0.3,6,0.9,8.9
	c4.9,24.7,28.8,40.7,53.5,35.8c18.1-3.6,32.2-17.7,35.8-35.8c0.6-2.9,0.9-5.9,0.9-8.9v-42.5c-0.1-1.7-1.4-3-3.1-3.1L185.8,229.8z"/>
<g>
	<g>
		<defs>
			<path id="SVGID_1_" d="M496.6,156.4c-22.3,139.7-142.3,242.9-283.9,243.9c-13.9,0.5-27.8-0.3-41.5-2.5
				c-59.1-10-103.1-60-105.7-119.9c0.5-68.2,56.1-123.1,124.3-122.6c66.9,0.5,121.2,54,122.6,120.9c0.5,20.5-8.4,38.4-26.6,38.9
				c-19.5,0-28.6-13.9-28.6-32.6v-52c0-17.5-14.1-31.8-31.6-31.9H182c-41.9-0.3-76.1,33.5-76.4,75.4s33.5,76.1,75.4,76.4
				c21.8,0.2,42.6-9.1,57.1-25.3l1.5-2.3l1.5,2.5c10.7,14.5,27.9,22.6,45.8,21.8c32.8-2.4,57.6-30.5,56.1-63.3
				c0.2-13.5-1.4-27-4.5-40.2c-18.1-83.1-100.1-135.9-183.3-117.8C84.2,141.2,33.7,204.3,33.9,277c1,83.9,68.2,152,152.1,154.1
				c8.1,0.7,16.2,0.9,24.3,0.8c62.6-0.4,123.7-18.6,176.3-52.6c0.8-0.5,1.5,0.5,1,1.3c-51.8,55.8-125.5,86-201.6,82.5
				C85.5,464.7,2.6,384.7,0.8,284.2c0-2.7,0-5.3,0-8c0-59.4,28.1-115.2,75.6-150.8c31.5-23.2,69.6-35.8,108.8-35.9h58.5
				c46.2,0,90.3-19.5,121.5-53.6c0.9-1,2.4-1,3.3-0.1c0.2,0.1,0.3,0.3,0.4,0.5c0.2,0.4,0.4,0.9,0.3,1.4
				c-2.5,26.3-11.2,51.6-25.5,73.9c-0.6,1.1-0.2,2.5,0.9,3.1c0.5,0.3,1.1,0.3,1.6,0.2c54.8-12.4,100.4-50,123-101.5
				c0.3-0.5,0.7-0.8,1.1-1.1c0.9-0.5,2.1-0.5,3.1,0c0.5,0.3,0.9,0.6,1.1,1.1C497.5,57.2,505.3,107.5,496.6,156.4L496.6,156.4z
				 M185.8,229.8c-25.1,0-45.5,20.4-45.5,45.5c0,3,0.3,6,0.9,8.9c4.9,24.7,28.8,40.7,53.5,35.8c18.1-3.6,32.2-17.7,35.8-35.8
				c0.6-2.9,0.9-5.9,0.9-8.9v-42.5c-0.1-1.7-1.4-3-3.1-3.1L185.8,229.8z"/>
		</defs>
		<clipPath id="SVGID_00000005267015024007696150000016826279989197978785_">
			<use xlink:href="#SVGID_1_"  style="overflow:visible;"/>
		</clipPath>
		<g style="clip-path:url(#SVGID_00000005267015024007696150000016826279989197978785_);">
			<path class="st3" d="M379.5,28.6c0,0,138,83.9,68,279.8l42.5-40.2c0,0,69.4-160.4-16-268.2L379.5,28.6z"/>
			<path class="st4" d="M266.6,63.9c0,0,122.1,36.3,125.8,159.9c3.4,115.1-84.7,160.9-130.8,176.1c-8.2,2.7-7.8,3.6-7.8,3.6
				L397,367.1l29-28.5l10.6-58.5L433,133.8l-40.1-56.9V36.7L372,17.9l-86.4,24.4L266.6,63.9z"/>
			<path class="st5" d="M339.9,48c0,0,151.1,93.9,68.1,279.8l42.5-40.2c0,0,59-117.7-26.4-225.5l-61.8-37.9L339.9,48z"/>
		</g>
	</g>
</g>
<path class="st6" d="M553,10.2L553,10.2c4.5,0,8.1,3.6,8.1,8.1v439.2c0,4.5-3.6,8.1-8.1,8.1l0,0c-4.5,0-8.1-3.6-8.1-8.1V18.2
	C544.9,13.8,548.5,10.2,553,10.2z"/>
<g>
	<path class="st7" d="M1116.2,455.8v-8.1l66.2-65.8c6.3-6.3,11-11.7,14.1-16.4s5.3-9.1,6.4-13.1s1.7-8,1.7-11.9
		c0-9.8-3.4-17.6-10.1-23.4c-6.7-5.7-16.6-8.6-29.5-8.6c-9.8,0-18.5,1.5-25.8,4.5c-7.4,3-13.8,7.5-19.1,13.6l-8.1-7.2
		c6-6.9,13.5-12.2,22.7-15.9c9.2-3.7,19.6-5.6,31.2-5.6c10.3,0,19.2,1.7,26.7,5c7.5,3.4,13.3,8.1,17.5,14.3c4.1,6.2,6.2,13.5,6.2,22
		c0,5.1-0.7,10-2.1,14.9c-1.4,4.8-4,10-7.6,15.3c-3.7,5.4-8.9,11.5-15.8,18.3l-62.2,62l-3.8-4.5h99.1v10.3h-107.7V455.8z"/>
	<path class="st7" d="M1292.8,456.9c-11.9,0-22.5-3.2-31.8-9.6c-9.2-6.4-16.5-15.5-21.7-27.4s-7.8-26-7.8-42.4s2.6-30.5,7.8-42.4
		c5.2-11.9,12.5-21,21.7-27.4s19.8-9.6,31.8-9.6c12.1,0,22.7,3.2,31.9,9.6c9.2,6.4,16.4,15.5,21.6,27.4s7.8,26,7.8,42.4
		s-2.6,30.5-7.8,42.4c-5.2,11.9-12.4,21-21.6,27.4C1315.5,453.7,1304.8,456.9,1292.8,456.9z M1292.8,446.4c10,0,18.7-2.7,26.2-8.2
		c7.5-5.4,13.3-13.3,17.5-23.6c4.2-10.3,6.3-22.7,6.3-37.1c0-14.6-2.1-27-6.3-37.2c-4.2-10.2-10-18-17.5-23.5
		c-7.5-5.4-16.2-8.2-26.2-8.2c-9.8,0-18.5,2.7-26.1,8.2c-7.5,5.4-13.4,13.3-17.6,23.5s-6.3,22.6-6.3,37.2c0,14.5,2.1,26.8,6.3,37.1
		c4.2,10.3,10,18.2,17.6,23.6C1274.2,443.7,1282.9,446.4,1292.8,446.4z"/>
	<path class="st7" d="M1361.7,455.8v-8.1l66.2-65.8c6.3-6.3,11-11.7,14.1-16.4s5.3-9.1,6.4-13.1s1.7-8,1.7-11.9
		c0-9.8-3.4-17.6-10.1-23.4c-6.7-5.7-16.6-8.6-29.5-8.6c-9.8,0-18.5,1.5-25.8,4.5c-7.4,3-13.8,7.5-19.1,13.6l-8.1-7.2
		c6-6.9,13.5-12.2,22.7-15.9c9.2-3.7,19.6-5.6,31.2-5.6c10.3,0,19.2,1.7,26.7,5c7.5,3.4,13.3,8.1,17.5,14.3c4.1,6.2,6.2,13.5,6.2,22
		c0,5.1-0.7,10-2.1,14.9c-1.4,4.8-4,10-7.6,15.3c-3.7,5.4-8.9,11.5-15.8,18.3l-62.2,62l-3.8-4.5h99.1v10.3h-107.7V455.8z"/>
	<path class="st7" d="M1522.7,456.9c-11.5,0-22.2-1.9-32.1-5.8s-17.6-8.9-23.2-15.2l5.8-8.7c4.8,5.5,11.5,10.1,20.2,13.8
		c8.7,3.7,18.5,5.5,29.2,5.5c14,0,24.7-3.1,32.1-9.4s11.1-14.7,11.1-25.3c0-10.4-3.7-18.8-11.1-25.2c-7.4-6.3-18.9-9.5-34.6-9.5
		h-9.8v-8.3l49.9-63.8l1.6,4.5h-88.6v-10.3h98.2v8.1l-49.7,63.8l-4.9-3.6h4.9c18.6,0,32.6,4.1,41.8,12.3c9.2,8.2,13.9,18.9,13.9,32
		c0,8.7-2.1,16.4-6.2,23.3s-10.2,12.2-18.3,16.1C1544.9,455,1534.8,456.9,1522.7,456.9z"/>
</g>
</svg>
