<svg xmlns="http://www.w3.org/2000/svg" viewBox="0 0 596.89 141.37"><defs><style>.a{fill:none;}.b{fill:#3b484e;}.c{fill:#0db1e0;}</style></defs><rect class="a" x="8.67" y="8.67" width="118.82" height="59.49" rx="4.95"/><path class="b" d="M124.28,0H11.88A11.88,11.88,0,0,0,0,11.88V64.94A11.88,11.88,0,0,0,11.88,76.82h112.4a11.87,11.87,0,0,0,11.87-11.88V11.88A11.87,11.87,0,0,0,124.28,0Zm3.21,63.2a5,5,0,0,1-5,5H13.62a5,5,0,0,1-4.95-5V13.62a5,5,0,0,1,4.95-4.95H122.53a5,5,0,0,1,5,4.95Z"/><circle class="c" cx="69.7" cy="37.34" r="10.13"/><circle class="c" cx="39.05" cy="37.34" r="10.13"/><polygon class="b" points="136.15 106.75 97.98 71.58 125.03 74.57 136.15 61.78 136.15 106.75"/><path class="c" d="M172.78,89.38c-2.29-2.1-3.43-5.51-3.43-10.26V64.05q0-7.2,3.1-10.3t10.3-3.1h3.93q5.94,0,9,3.31t3.06,9.67V74.52H176.47V80.8a5.08,5.08,0,0,0,1.59,4,6.82,6.82,0,0,0,4.69,1.43h13.31v6.28H183.58Q176.21,92.52,172.78,89.38Zm19-27.42a4.87,4.87,0,0,0-5-5h-4.85q-3,0-4.23,1.38a6,6,0,0,0-1.21,4.06v5.87h15.32Z"/><path class="c" d="M238.72,90.51q-2.15-2-2.14-6.36v-44h-12.3V33.91H243.7V83.73a2.42,2.42,0,0,0,.67,1.92,3.44,3.44,0,0,0,2.26.59h11.14v6.28H243.7A7,7,0,0,1,238.72,90.51Z"/><path class="c" d="M295.66,90.51q-2.15-2-2.14-6.36v-44H281.21V33.91h19.43V83.73a2.42,2.42,0,0,0,.67,1.92,3.42,3.42,0,0,0,2.26.59H314.7v6.28H300.64A7,7,0,0,1,295.66,90.51Z"/><path class="c" d="M350.37,99.72a4.69,4.69,0,0,0,1.51-2.6l1.17-4.6h-1.67L337.56,50.65h7.7l10.47,35.09,13.86-51.83h7.29L359.16,97a17.89,17.89,0,0,1-2.68,6.36,7.25,7.25,0,0,1-3.55,2.72,17.05,17.05,0,0,1-5.07.63h-4v-6.28h3.52A5,5,0,0,0,350.37,99.72Z"/><path class="b" d="M402.31,89.38c-2.29-2.1-3.44-5.51-3.44-10.26V64.05q0-7,3.48-10.22t10.76-3.18h10.8v6.28H412.27a6.82,6.82,0,0,0-4.69,1.43,5.11,5.11,0,0,0-1.59,4V80.8a5.08,5.08,0,0,0,1.59,4,6.82,6.82,0,0,0,4.69,1.43h11.64v6.28h-10.8Q405.73,92.52,402.31,89.38Z"/><path class="b" d="M480.47,89.34q-3.48,3.18-10.76,3.18h-2.77q-7.28,0-10.76-3.18t-3.47-10.22V64.05q0-7,3.47-10.22t10.76-3.18h2.77q7.28,0,10.76,3.18t3.47,10.22V79.12Q483.94,86.16,480.47,89.34Zm-5.24-31a6.82,6.82,0,0,0-4.69-1.43h-4.43a6.82,6.82,0,0,0-4.69,1.43,5.11,5.11,0,0,0-1.59,4V80.8a5.08,5.08,0,0,0,1.59,4,6.82,6.82,0,0,0,4.69,1.43h4.43a6.82,6.82,0,0,0,4.69-1.43,5.08,5.08,0,0,0,1.59-4V62.37A5.11,5.11,0,0,0,475.23,58.36Z"/><path class="b" d="M527.4,92.52H524q-7.37,0-10.8-3.14c-2.29-2.1-3.43-5.51-3.43-10.26V64.05q0-7,3.47-10.22T524,50.65h9.72V33.91h7.11V92.52H534.1V90.59A11.41,11.41,0,0,1,527.4,92.52Zm4.94-7.75a4.58,4.58,0,0,0,1.34-3.14V56.93H523.13a6.82,6.82,0,0,0-4.69,1.43,5.11,5.11,0,0,0-1.59,4V80.8a5.08,5.08,0,0,0,1.59,4,6.82,6.82,0,0,0,4.69,1.43h5.1A5.3,5.3,0,0,0,532.34,84.77Z"/><path class="b" d="M570.94,89.38c-2.29-2.1-3.44-5.51-3.44-10.26V64.05q0-7.2,3.1-10.3t10.3-3.1h3.94q5.94,0,9,3.31t3,9.67V74.52H574.62V80.8a5.08,5.08,0,0,0,1.59,4,6.82,6.82,0,0,0,4.69,1.43h13.31v6.28H581.74Q574.36,92.52,570.94,89.38Zm19-27.42a4.87,4.87,0,0,0-5-5h-4.86q-3,0-4.23,1.38a6,6,0,0,0-1.21,4.06v5.87h15.32Z"/><path class="b" d="M170.6,129.47h2.23l2.79,8.67,2.87-8.71h1.74l2.88,8.71,2.79-8.67h2.16L184,141.25h-1.77l-2.88-8.41-2.88,8.41h-1.77Z"/><path class="b" d="M204.73,129.47h2v4.86h5.62v-4.86h2v11.7h-2v-4.93h-5.62v4.93h-2Z"/><path class="b" d="M236.15,129.38h1.91l5.15,11.79H241l-1.19-2.83h-5.54l-1.2,2.83H231Zm2.95,7.14-2-4.68-2,4.68Z"/><path class="b" d="M262.66,131.37h-3.72v-1.9h9.5v1.9h-3.71v9.8h-2.07Z"/><path class="b" d="M304.76,129.47h4.37a6.79,6.79,0,0,1,2.51.44,5.72,5.72,0,0,1,2,1.23A5.49,5.49,0,0,1,314.9,133a5.86,5.86,0,0,1,.45,2.3v0a6,6,0,0,1-.45,2.31,5.44,5.44,0,0,1-1.28,1.85,5.89,5.89,0,0,1-2,1.24,6.79,6.79,0,0,1-2.51.45h-4.37Zm4.35,9.84a4.47,4.47,0,0,0,1.67-.29,3.75,3.75,0,0,0,1.28-.82,3.62,3.62,0,0,0,.82-1.26,4.16,4.16,0,0,0,.29-1.59v0a4.25,4.25,0,0,0-.29-1.6,3.62,3.62,0,0,0-2.1-2.1,4.47,4.47,0,0,0-1.67-.3H306.8v8Z"/><path class="b" d="M338,141.37a6.18,6.18,0,0,1-2.47-.48,5.74,5.74,0,0,1-1.93-1.29,6.07,6.07,0,0,1-1.7-4.25v0a6.13,6.13,0,0,1,.45-2.34,5.8,5.8,0,0,1,1.27-1.92,6.09,6.09,0,0,1,1.94-1.31,6.56,6.56,0,0,1,4.95,0,5.91,5.91,0,0,1,3.18,3.21,6.08,6.08,0,0,1,.45,2.33v0a6.08,6.08,0,0,1-.45,2.33,6,6,0,0,1-1.27,1.92,6,6,0,0,1-4.42,1.8Zm0-1.89a3.93,3.93,0,0,0,1.59-.32,3.75,3.75,0,0,0,1.24-.89,3.91,3.91,0,0,0,.81-1.31,4.34,4.34,0,0,0,.29-1.61v0a4.39,4.39,0,0,0-.29-1.62,4.05,4.05,0,0,0-.81-1.32,3.94,3.94,0,0,0-1.26-.89,3.86,3.86,0,0,0-1.6-.34,3.77,3.77,0,0,0-1.59.33,3.71,3.71,0,0,0-1.24.89,4.25,4.25,0,0,0-.81,1.31,4.5,4.5,0,0,0-.29,1.6v0a4.55,4.55,0,0,0,.29,1.61,4,4,0,0,0,.82,1.32,4,4,0,0,0,1.26.9A3.8,3.8,0,0,0,338,139.48Z"/><path class="b" d="M384.21,136.56l-4.65-7.09H382l3.27,5.18,3.32-5.18h2.35l-4.65,7v4.66h-2.07Z"/><path class="b" d="M412.89,141.37a6.27,6.27,0,0,1-2.48-.48,5.8,5.8,0,0,1-1.92-1.29,6.07,6.07,0,0,1-1.25-1.92,5.87,5.87,0,0,1-.46-2.33v0a6,6,0,0,1,.46-2.34,5.8,5.8,0,0,1,1.27-1.92,6,6,0,0,1,1.94-1.31,6.19,6.19,0,0,1,2.47-.49,6.27,6.27,0,0,1,2.48.48,6,6,0,0,1,1.92,1.3,6.09,6.09,0,0,1,1.71,4.24v0a5.91,5.91,0,0,1-.46,2.33,5.8,5.8,0,0,1-1.27,1.92,6,6,0,0,1-1.94,1.32A6.18,6.18,0,0,1,412.89,141.37Zm0-1.89a3.93,3.93,0,0,0,1.59-.32,3.85,3.85,0,0,0,1.24-.89,3.91,3.91,0,0,0,.81-1.31,4.55,4.55,0,0,0,.29-1.61v0a4.61,4.61,0,0,0-.29-1.62,4.08,4.08,0,0,0-.82-1.32,4,4,0,0,0-1.25-.89,3.89,3.89,0,0,0-1.6-.34,3.77,3.77,0,0,0-1.59.33,3.71,3.71,0,0,0-1.24.89,3.91,3.91,0,0,0-.81,1.31,4.5,4.5,0,0,0-.29,1.6v0a4.55,4.55,0,0,0,.29,1.61,3.88,3.88,0,0,0,.82,1.32,3.92,3.92,0,0,0,1.25.9A3.85,3.85,0,0,0,412.92,139.48Z"/><path class="b" d="M440.88,141.35a6.1,6.1,0,0,1-2.06-.32,4.13,4.13,0,0,1-2.57-2.59,6.63,6.63,0,0,1-.35-2.24v-6.73h2v6.65a3.53,3.53,0,0,0,.79,2.49,2.83,2.83,0,0,0,2.19.85,2.87,2.87,0,0,0,2.16-.81,3.39,3.39,0,0,0,.8-2.45v-6.73h2v6.63a6.88,6.88,0,0,1-.36,2.29,4.44,4.44,0,0,1-1,1.65,4.09,4.09,0,0,1-1.58,1A6.18,6.18,0,0,1,440.88,141.35Z"/><path class="b" d="M482.89,129.47h1.9l6.26,8.09v-8.09h2v11.7h-1.72l-6.44-8.33v8.33h-2Z"/><path class="b" d="M510.66,129.47h8.66v1.85H512.7v3h5.87v1.86H512.7v3.12h6.71v1.86h-8.75Z"/><path class="b" d="M536.43,129.47h8.66v1.85h-6.62v3h5.87v1.86h-5.87v3.12h6.71v1.86h-8.75Z"/><path class="b" d="M562.2,129.47h4.36a6.81,6.81,0,0,1,2.52.44,5.77,5.77,0,0,1,2,1.23,5.36,5.36,0,0,1,1.28,1.84,5.87,5.87,0,0,1,.46,2.3v0a6,6,0,0,1-.46,2.31,5.3,5.3,0,0,1-1.28,1.85,6,6,0,0,1-2,1.24,6.81,6.81,0,0,1-2.52.45H562.2Zm4.35,9.84a4.47,4.47,0,0,0,1.67-.29,3.59,3.59,0,0,0,2.1-2.08,4.36,4.36,0,0,0,.29-1.59v0a4.46,4.46,0,0,0-.29-1.6,3.91,3.91,0,0,0-.82-1.27,3.78,3.78,0,0,0-1.28-.83,4.47,4.47,0,0,0-1.67-.3h-2.31v8Z"/><path class="b" d="M591.46,134.77l.09-.09a4.79,4.79,0,0,0,2.35-.55,1.53,1.53,0,0,0,.74-1.33v0a1.45,1.45,0,0,0-.51-1.15,2.06,2.06,0,0,0-1.41-.45,3.08,3.08,0,0,0-1.46.34,4.93,4.93,0,0,0-1.27,1l-1.25-1.34a6,6,0,0,1,1.71-1.33,4.91,4.91,0,0,1,2.32-.51,5.11,5.11,0,0,1,1.6.24,3.34,3.34,0,0,1,1.23.68,3,3,0,0,1,.8,1.07,3.35,3.35,0,0,1,.28,1.41v0a3.38,3.38,0,0,1-.26,1.37,3,3,0,0,1-.72,1,3.61,3.61,0,0,1-1.07.65,5.86,5.86,0,0,1-1.31.37l-.17,1.36H591.8Zm-.15,4.11h2.25v2.29h-2.25Z"/></svg>