<?xml version="1.0" encoding="UTF-8"?><svg id="Livello_2" xmlns="http://www.w3.org/2000/svg" xmlns:xlink="http://www.w3.org/1999/xlink" viewBox="0 0 1582.93 455.31"><defs><clipPath id="clippath"><path d="M496.64,146.2c-22.28,139.75-142.34,242.9-283.85,243.88-13.88.53-27.78-.31-41.49-2.52-59.09-10.04-103.15-59.99-105.74-119.87.46-68.19,56.12-123.09,124.31-122.63,66.85.45,121.2,54.04,122.6,120.88.52,20.47-8.35,38.42-26.57,38.94-19.47,0-28.6-13.89-28.6-32.61v-52c.02-17.51-14.1-31.75-31.61-31.89h-43.61c-41.92-.29-76.14,33.46-76.43,75.38-.29,41.92,33.46,76.14,75.38,76.43,21.79.15,42.59-9.07,57.12-25.32l1.52-2.27,1.53,2.52c10.66,14.46,27.85,22.64,45.8,21.78,32.76-2.38,57.64-30.46,56.06-63.27.16-13.54-1.36-27.05-4.51-40.22-18.08-83.14-100.14-135.88-183.28-117.8-71.05,15.45-121.62,78.47-121.32,151.17,1.01,83.89,68.18,151.95,152.05,154.07,8.08.66,16.19.91,24.29.75,62.58-.4,123.75-18.65,176.31-52.61.75-.52,1.49.52,1,1.28-51.8,55.8-125.54,85.96-201.6,82.45C85.5,454.53,2.57,374.51.77,274.01c-.05-2.67-.04-5.34.03-8.01.04-59.37,28.06-115.24,75.63-150.77,31.53-23.22,69.64-35.8,108.8-35.92h58.52c46.23-.03,90.31-19.5,121.48-53.64.88-.95,2.37-1.01,3.32-.12.16.15.3.32.41.5.25.42.36.91.32,1.4-2.48,26.31-11.24,51.64-25.54,73.86-.6,1.1-.2,2.48.9,3.08.5.27,1.07.35,1.62.22,54.77-12.39,100.42-50.04,123-101.46.28-.45.67-.83,1.13-1.1.95-.54,2.11-.54,3.06,0,.47.26.86.64,1.14,1.1,22.92,43.93,30.66,94.21,22,143l.04.05ZM185.83,219.59c-25.14,0-45.52,20.38-45.53,45.52,0,2.98.29,5.96.87,8.89,4.89,24.66,28.85,40.68,53.51,35.79,18.08-3.59,32.21-17.72,35.79-35.79.58-2.93.88-5.91.87-8.89v-42.5c-.08-1.68-1.43-3.03-3.11-3.11l-42.4.09Z" fill="none"/></clipPath></defs><g id="Livello_1-2"><path d="M648.79,437.47c-11.79-6.29-21.62-15.71-28.4-27.23-6.85-11.58-10.27-24.65-10.27-39.2s3.46-27.62,10.38-39.21c6.84-11.51,16.7-20.92,28.5-27.23,12.08-6.57,25.61-9.86,40.59-9.85,11.4-.14,22.72,2.02,33.27,6.35,9.8,4.08,18.51,10.39,25.43,18.44l-17.8,16.74c-10.74-11.58-23.95-17.37-39.63-17.37-9.53-.16-18.95,2.14-27.34,6.67-7.9,4.3-14.43,10.72-18.86,18.54-9.04,16.8-9.04,37.03,0,53.83,4.43,7.82,10.96,14.24,18.86,18.54,8.39,4.54,17.8,6.84,27.34,6.68,15.68,0,28.89-5.86,39.63-17.59l17.8,16.95c-6.94,8.08-15.69,14.41-25.54,18.47-10.59,4.33-21.94,6.5-33.38,6.36-14.97-.02-28.49-3.32-40.58-9.89Z" fill="#59328a"/><path d="M775.2,439.27c-8.96-4.73-16.42-11.89-21.51-20.66-10.31-18.62-10.31-41.24,0-59.86,5.12-8.72,12.57-15.84,21.51-20.56,19.51-9.89,42.58-9.89,62.09,0,8.94,4.72,16.39,11.84,21.51,20.56,10.32,18.62,10.32,41.24,0,59.86-5.09,8.77-12.55,15.93-21.51,20.66-9.18,4.95-19.56,7.43-31.15,7.42-10.77.16-21.41-2.39-30.94-7.42ZM830.3,414.27c6.36-6.5,9.54-15.05,9.54-25.64,0-10.59-3.18-19.14-9.54-25.63s-14.41-9.74-24.16-9.74-17.75,3.25-24,9.74c-6.29,6.5-9.44,15.05-9.43,25.65,0,10.6,3.15,19.15,9.43,25.64,6.28,6.5,14.28,9.75,24,9.75,9.72,0,17.77-3.26,24.16-9.77Z" fill="#59328a"/><path d="M977.79,343.28c8.62,8.33,12.93,20.69,12.93,37.08v64.85h-26.49v-61.46c0-9.89-2.33-17.34-7-22.35-4.67-5.01-11.31-7.52-19.92-7.53-9.75,0-17.45,2.93-23.1,8.8-5.65,5.87-8.48,14.31-8.47,25.33v57.22h-26.49v-113.22h25.22v14.63c4.44-5.26,10.12-9.32,16.53-11.83,7.16-2.77,14.79-4.13,22.46-4,14.27-.02,25.72,4.14,34.33,12.48Z" fill="#59328a"/><path d="M1040.94,326.11v6.78h31.16v21.19h-30.31v91.13h-26.49v-91.13h-18.65v-21.19h18.65v-7.2c0-12.15,3.53-21.72,10.6-28.72,7.07-7,17.03-10.5,29.88-10.49,10.17,0,18.15,2.05,23.94,6.15l-7.41,19.92c-4.28-3.03-9.39-4.66-14.63-4.66-11.16,0-16.74,6.07-16.74,18.22Z" fill="#59328a"/><path d="M805.37,127.11c6.5,8.42,9.75,18.56,9.75,30.41,0,17.6-7.27,31.23-21.8,40.89s-35.58,14.49-63.13,14.49h-113V12.05h107.27c26.77,0,46.99,4.78,60.68,14.35,13.69,9.57,20.53,22.29,20.52,38.16.13,8.91-2.3,17.68-7,25.25-4.67,7.46-11.6,13.48-20.81,18.07,11.84,4.41,21.01,10.82,27.52,19.23ZM683.71,59.39v29.84h31.56c14.73,0,22.1-4.97,22.1-14.92,0-9.95-7.37-14.92-22.1-14.92h-31.56ZM746.84,149.78c0-10.52-7.46-15.78-22.38-15.79h-40.75v31.57h40.75c14.92,0,22.38-5.26,22.38-15.78Z" fill="#59328a"/><path d="M836.93,0h64.84v212.9h-64.84V0Z" fill="#59328a"/><path d="M1063.89,71.59c14.53,12.34,21.79,31.32,21.8,56.95v84.36h-60.25v-20.66c-7.46,15.69-22.29,23.53-44.48,23.53-12.43,0-23-2.15-31.7-6.46-8.7-4.31-15.3-10.14-19.8-17.5-4.53-7.48-6.86-16.07-6.74-24.81,0-15.49,5.93-27.26,17.79-35.29,11.86-8.03,29.84-12.03,53.94-12h26.11c-2.11-12.24-11.96-18.36-29.55-18.36-7.3.03-14.55,1.14-21.52,3.29-6.69,1.91-13,4.95-18.65,9l-20.66-42.77c8.99-5.54,19.85-9.89,32.56-13.05,12.43-3.12,25.19-4.71,38-4.74,27.57,0,48.62,6.17,63.15,18.51ZM1012.81,173c3.81-2.76,6.62-6.69,8-11.19v-10.89h-16.07c-13.2,0-19.8,4.4-19.8,13.2-.05,3.48,1.48,6.79,4.16,9,2.77,2.39,6.55,3.59,11.34,3.59,4.41.07,8.73-1.23,12.37-3.71Z" fill="#59328a"/><path d="M1257.84,165.56v47.34h-149.77v-37.3l64.84-72.31h-62.55v-47.29h144.33v37.3l-64.85,72.31,68-.05Z" fill="#59328a"/><path d="M1311.93,205.3c-13.31-6.5-24.58-16.53-32.57-29-7.84-12.34-11.76-26.34-11.76-42s3.92-29.66,11.76-42c7.97-12.45,19.25-22.43,32.57-28.84,13.87-6.89,29.5-10.33,46.91-10.33s33.33,3.44,47.2,10.33c13.87,6.89,24.67,16.5,32.42,28.84,7.75,12.33,11.63,26.33,11.62,42,0,15.67-3.88,29.67-11.62,42-7.74,12.33-18.55,22-32.42,29s-29.61,10.49-47.2,10.47c-17.41,0-33.04-3.49-46.91-10.47ZM1377.21,157.09c4.77-5.45,7.16-13.06,7.17-22.81.01-9.75-2.38-17.31-7.17-22.67-9.37-10.14-25.18-10.77-35.33-1.4-.49.45-.95.92-1.4,1.4-4.78,5.33-7.17,12.89-7.17,22.67s2.39,17.38,7.17,22.81c9.13,10.14,24.75,10.96,34.9,1.83.64-.58,1.25-1.19,1.83-1.83Z" fill="#59328a"/><path d="M1582.93,53.08v57.39c-4.75-.74-9.54-1.12-14.35-1.15-22.19,0-33.28,11.29-33.28,33.86v69.72h-64.85V56h61.69v16.88c11.48-13.2,28.41-19.8,50.79-19.8Z" fill="#59328a"/><path d="M496.64,146.2c-22.28,139.75-142.34,242.9-283.85,243.88-13.88.53-27.78-.31-41.49-2.52-59.09-10.04-103.15-59.99-105.74-119.87.46-68.19,56.12-123.09,124.31-122.63,66.85.45,121.2,54.04,122.6,120.88.52,20.47-8.35,38.42-26.57,38.94-19.47,0-28.6-13.89-28.6-32.61v-52c.02-17.51-14.1-31.75-31.61-31.89h-43.61c-41.92-.29-76.14,33.46-76.43,75.38-.29,41.92,33.46,76.14,75.38,76.43,21.79.15,42.59-9.07,57.12-25.32l1.52-2.27,1.53,2.52c10.66,14.46,27.85,22.64,45.8,21.78,32.76-2.38,57.64-30.46,56.06-63.27.16-13.54-1.36-27.05-4.51-40.22-18.08-83.14-100.14-135.88-183.28-117.8-71.05,15.45-121.62,78.47-121.32,151.17,1.01,83.89,68.18,151.95,152.05,154.07,8.08.66,16.19.91,24.29.75,62.58-.4,123.75-18.65,176.31-52.61.75-.52,1.49.52,1,1.28-51.8,55.8-125.54,85.96-201.6,82.45C85.5,454.53,2.57,374.51.77,274.01c-.05-2.67-.04-5.34.03-8.01.04-59.37,28.06-115.24,75.63-150.77,31.53-23.22,69.64-35.8,108.8-35.92h58.52c46.23-.03,90.31-19.5,121.48-53.64.88-.95,2.37-1.01,3.32-.12.16.15.3.32.41.5.25.42.36.91.32,1.4-2.48,26.31-11.24,51.64-25.54,73.86-.6,1.1-.2,2.48.9,3.08.5.27,1.07.35,1.62.22,54.77-12.39,100.42-50.04,123-101.46.28-.45.67-.83,1.13-1.1.95-.54,2.11-.54,3.06,0,.47.26.86.64,1.14,1.1,22.92,43.93,30.66,94.21,22,143l.04.05ZM185.83,219.59c-25.14,0-45.52,20.38-45.53,45.52,0,2.98.29,5.96.87,8.89,4.89,24.66,28.85,40.68,53.51,35.79,18.08-3.59,32.21-17.72,35.79-35.79.58-2.93.88-5.91.87-8.89v-42.5c-.08-1.68-1.43-3.03-3.11-3.11l-42.4.09Z" fill="#59328a" stroke="#59328a" stroke-miterlimit="10" stroke-width="1.49"/><g clip-path="url(#clippath)"><path d="M379.55,18.42s138,83.87,68,279.81l42.51-40.17s69.38-160.35-16-268.23l-94.51,28.59Z" fill="#cc1517"/><path d="M266.58,53.75s122.11,36.34,125.8,159.85c3.43,115.13-84.69,160.87-130.82,176.12-8.22,2.72-7.81,3.62-7.81,3.62l143.25-36.4,29-28.47,10.6-58.47-3.6-146.36-40.11-56.93V26.55l-20.84-18.8-86.41,24.4-19.06,21.6Z" fill="#019939"/><path d="M339.9,37.86s151.1,93.91,68.1,279.81l42.5-40.16s59.04-117.66-26.35-225.51l-61.76-37.9-22.49,23.76Z" fill="#fff" stroke="#59328a" stroke-miterlimit="10"/></g><path d="M552.95,0h0c4.46,0,8.08,3.62,8.08,8.08v439.15c0,4.46-3.62,8.08-8.08,8.08h0c-4.46,0-8.08-3.62-8.08-8.08V8.08c0-4.46,3.62-8.08,8.08-8.08Z" fill="#999998"/><path d="M1104.46,445.62v-8.05l66.22-65.78c6.26-6.26,10.96-11.75,14.09-16.44s5.26-9.06,6.38-13.09c1.12-4.03,1.68-7.98,1.68-11.86,0-9.84-3.36-17.64-10.07-23.38-6.71-5.74-16.56-8.61-29.53-8.61-9.84,0-18.46,1.49-25.84,4.47-7.38,2.98-13.76,7.53-19.13,13.65l-8.05-7.16c5.96-6.86,13.54-12.15,22.71-15.88,9.17-3.73,19.58-5.59,31.21-5.59,10.29,0,19.2,1.68,26.74,5.03,7.53,3.36,13.35,8.13,17.45,14.32,4.1,6.19,6.15,13.54,6.15,22.04,0,5.07-.71,10.03-2.12,14.88-1.42,4.85-3.95,9.96-7.61,15.32-3.66,5.37-8.91,11.49-15.77,18.35l-62.2,61.97-3.8-4.47h99.11v10.29h-107.61Z" fill="#999998"/><path d="M1276.5,446.74c-11.93,0-22.52-3.21-31.77-9.62-9.25-6.41-16.48-15.55-21.7-27.41-5.22-11.86-7.83-25.99-7.83-42.4s2.61-30.54,7.83-42.4c5.22-11.86,12.45-20.99,21.7-27.41,9.25-6.41,19.83-9.62,31.77-9.62s22.71,3.21,31.88,9.62c9.17,6.42,16.37,15.55,21.59,27.41,5.22,11.86,7.83,25.99,7.83,42.4s-2.61,30.54-7.83,42.4c-5.22,11.86-12.42,21-21.59,27.41-9.17,6.42-19.8,9.62-31.88,9.62ZM1276.5,436.22c9.99,0,18.72-2.72,26.18-8.17,7.46-5.44,13.27-13.31,17.45-23.6,4.17-10.29,6.26-22.67,6.26-37.14s-2.09-27.03-6.26-37.25c-4.18-10.21-9.99-18.04-17.45-23.49-7.46-5.44-16.18-8.17-26.18-8.17s-18.53,2.72-26.06,8.17c-7.53,5.45-13.39,13.28-17.56,23.49-4.18,10.22-6.26,22.63-6.26,37.25s2.09,26.85,6.26,37.14c4.17,10.29,10.03,18.16,17.56,23.6,7.53,5.45,16.22,8.17,26.06,8.17Z" fill="#999998"/><path d="M1345.41,445.62v-8.05l66.22-65.78c6.26-6.26,10.96-11.75,14.09-16.44s5.26-9.06,6.38-13.09c1.12-4.03,1.68-7.98,1.68-11.86,0-9.84-3.36-17.64-10.07-23.38-6.71-5.74-16.56-8.61-29.53-8.61-9.84,0-18.46,1.49-25.84,4.47-7.38,2.98-13.76,7.53-19.13,13.65l-8.05-7.16c5.96-6.86,13.54-12.15,22.71-15.88,9.17-3.73,19.58-5.59,31.21-5.59,10.29,0,19.2,1.68,26.74,5.03,7.53,3.36,13.35,8.13,17.45,14.32,4.1,6.19,6.15,13.54,6.15,22.04,0,5.07-.71,10.03-2.12,14.88-1.42,4.85-3.95,9.96-7.61,15.32-3.66,5.37-8.91,11.49-15.77,18.35l-62.2,61.97-3.8-4.47h99.11v10.29h-107.61Z" fill="#999998"/><path d="M1518.12,446.74c-11.34,0-21.96-1.94-31.88-5.82-9.92-3.88-17.64-8.95-23.16-15.21l5.82-8.73c4.77,5.52,11.48,10.11,20.13,13.76,8.65,3.66,18.27,5.48,28.86,5.48,14.46,0,25.35-3.28,32.66-9.84,7.31-6.56,10.96-15.06,10.96-25.5,0-7.46-1.72-13.87-5.15-19.24-3.43-5.37-9.25-9.51-17.45-12.42-8.21-2.91-19.39-4.36-33.56-4.36h-31.77l8.28-75.84h83v10.29h-78.3l5.59-5.37-7.38,66.45-5.37-5.82h28.41c15.96,0,28.67,1.9,38.15,5.71,9.47,3.8,16.33,9.14,20.58,16,4.25,6.86,6.38,14.92,6.38,24.16,0,8.65-2.01,16.48-6.04,23.49-4.03,7.01-10.11,12.57-18.23,16.67-8.13,4.1-18.31,6.15-30.54,6.15Z" fill="#999998"/></g></svg>